C:\Users\Nicos\Documents\OpenSimProjects\SprintingProject\Study1\PredictiveResults\IC_pred_Sprinting_optimum_26-October-2023__22-16-26_p02_maxVel_01___HTD_Plus_4_GRF.mot
version=1
nRows=10
nColumns=127
inDegrees=yes
endheader
time	ground_force_vx	ground_force_vy	ground_force_vz	ground_force_px	ground_force_py	ground_force_pz	ground_torque_x	ground_torque_y	ground_torque_z	1_ground_force_vx	1_ground_force_vy	1_ground_force_vz	1_ground_force_px	1_ground_force_py	1_ground_force_pz	1_ground_torque_x	1_ground_torque_y	1_ground_torque_z	2_ground_force_vx	2_ground_force_vy	2_ground_force_vz	2_ground_force_px	2_ground_force_py	2_ground_force_pz	2_ground_torque_x	2_ground_torque_y	2_ground_torque_z	3_ground_force_vx	3_ground_force_vy	3_ground_force_vz	3_ground_force_px	3_ground_force_py	3_ground_force_pz	3_ground_torque_x	3_ground_torque_y	3_ground_torque_z	4_ground_force_vx	4_ground_force_vy	4_ground_force_vz	4_ground_force_px	4_ground_force_py	4_ground_force_pz	4_ground_torque_x	4_ground_torque_y	4_ground_torque_z	5_ground_force_vx	5_ground_force_vy	5_ground_force_vz	5_ground_force_px	5_ground_force_py	5_ground_force_pz	5_ground_torque_x	5_ground_torque_y	5_ground_torque_z	6_ground_force_vx	6_ground_force_vy	6_ground_force_vz	6_ground_force_px	6_ground_force_py	6_ground_force_pz	6_ground_torque_x	6_ground_torque_y	6_ground_torque_z	7_ground_force_vx	7_ground_force_vy	7_ground_force_vz	7_ground_force_px	7_ground_force_py	7_ground_force_pz	7_ground_torque_x	7_ground_torque_y	7_ground_torque_z	8_ground_force_vx	8_ground_force_vy	8_ground_force_vz	8_ground_force_px	8_ground_force_py	8_ground_force_pz	8_ground_torque_x	8_ground_torque_y	8_ground_torque_z	9_ground_force_vx	9_ground_force_vy	9_ground_force_vz	9_ground_force_px	9_ground_force_py	9_ground_force_pz	9_ground_torque_x	9_ground_torque_y	9_ground_torque_z	10_ground_force_vx	10_ground_force_vy	10_ground_force_vz	10_ground_force_px	10_ground_force_py	10_ground_force_pz	10_ground_torque_x	10_ground_torque_y	10_ground_torque_z	11_ground_force_vx	11_ground_force_vy	11_ground_force_vz	11_ground_force_px	11_ground_force_py	11_ground_force_pz	11_ground_torque_x	11_ground_torque_y	11_ground_torque_z	12_ground_force_vx	12_ground_force_vy	12_ground_force_vz	12_ground_force_px	12_ground_force_py	12_ground_force_pz	12_ground_torque_x	12_ground_torque_y	12_ground_torque_z	13_ground_force_vx	13_ground_force_vy	13_ground_force_vz	13_ground_force_px	13_ground_force_py	13_ground_force_pz	13_ground_torque_x	13_ground_torque_y	13_ground_torque_z
0.213372	-0.000000	0.000000	-0.000000	1.067361	0.219817	0.390847	0.000000	0.000000	0.000000	-0.000000	0.000000	-0.000000	1.092536	0.238033	0.413346	0.000000	0.000000	0.000000	-0.000000	0.000000	-0.000000	1.110550	0.246722	0.411953	0.000000	0.000000	0.000000	-0.000000	0.000000	-0.000000	1.107849	0.245619	0.389496	0.000000	0.000000	0.000000	-0.000000	0.000000	-0.000000	1.153831	0.283660	0.445027	0.000000	0.000000	0.000000	-0.000000	0.000000	-0.000000	1.124775	0.259755	0.407680	0.000000	0.000000	0.000000	-0.000000	0.000000	-0.000000	1.181676	0.311885	0.390591	0.000000	0.000000	0.000000	-0.000000	0.000000	-0.000000	2.393068	0.069393	0.189353	0.000000	0.000000	0.000000	-0.000000	0.000000	-0.000000	2.353445	0.077271	0.163878	0.000000	0.000000	0.000000	-0.000000	0.000000	-0.000000	2.321459	0.079989	0.169397	0.000000	0.000000	0.000000	-0.000000	0.000000	-0.000000	2.321270	0.076493	0.191020	0.000000	0.000000	0.000000	-0.000000	0.000000	0.000000	2.244331	0.096439	0.132066	0.000000	0.000000	0.000000	-0.000000	0.000000	-0.000000	2.292396	0.083562	0.171454	0.000000	0.000000	0.000000	-0.000000	0.000000	0.000000	2.176141	0.097855	0.179681	0.000000	0.000000	0.000000
0.214857	-0.000000	0.000000	-0.000000	1.087833	0.222802	0.391288	0.000000	0.000000	0.000000	-0.000000	0.000000	-0.000000	1.113243	0.240954	0.413729	0.000000	0.000000	0.000000	-0.000000	0.000000	-0.000000	1.131343	0.249596	0.412296	0.000000	0.000000	0.000000	-0.000000	0.000000	-0.000000	1.128584	0.248498	0.389845	0.000000	0.000000	0.000000	-0.000000	0.000000	-0.000000	1.175074	0.286423	0.445270	0.000000	0.000000	0.000000	-0.000000	0.000000	-0.000000	1.145694	0.262591	0.407991	0.000000	0.000000	0.000000	-0.000000	0.000000	-0.000000	1.203098	0.314572	0.390768	0.000000	0.000000	0.000000	-0.000000	0.000000	-0.000000	2.411645	0.067404	0.190019	0.000000	0.000000	0.000000	-0.000000	0.000000	-0.000000	2.372185	0.075419	0.164461	0.000000	0.000000	0.000000	-0.000000	0.000000	-0.000000	2.340729	0.078398	0.169672	0.000000	0.000000	0.000000	-0.000000	0.000000	-0.000000	2.340431	0.074910	0.191298	0.000000	0.000000	0.000000	-0.000000	0.000000	0.000000	2.263782	0.094820	0.131918	0.000000	0.000000	0.000000	-0.000000	0.000000	-0.000000	2.311652	0.081966	0.171573	0.000000	0.000000	0.000000	-0.000000	0.000000	0.000000	2.195345	0.096239	0.179177	0.000000	0.000000	0.000000
0.215505	-0.000000	0.000000	-0.000000	1.096847	0.224074	0.391496	0.000000	0.000000	0.000000	-0.000000	0.000000	-0.000000	1.122355	0.242200	0.413909	0.000000	0.000000	0.000000	-0.000000	0.000000	-0.000000	1.140491	0.250823	0.412457	0.000000	0.000000	0.000000	-0.000000	0.000000	-0.000000	1.137705	0.249727	0.390009	0.000000	0.000000	0.000000	-0.000000	0.000000	-0.000000	1.184410	0.287606	0.445381	0.000000	0.000000	0.000000	-0.000000	0.000000	-0.000000	1.154892	0.263803	0.408135	0.000000	0.000000	0.000000	-0.000000	0.000000	-0.000000	1.212498	0.315723	0.390848	0.000000	0.000000	0.000000	-0.000000	0.000000	-0.000000	2.419621	0.066526	0.190292	0.000000	0.000000	0.000000	-0.000000	0.000000	-0.000000	2.380235	0.074606	0.164702	0.000000	0.000000	0.000000	-0.000000	0.000000	-0.000000	2.349023	0.077702	0.169774	0.000000	0.000000	0.000000	-0.000000	0.000000	-0.000000	2.348676	0.074215	0.191401	0.000000	0.000000	0.000000	-0.000000	0.000000	0.000000	2.272158	0.094117	0.131841	0.000000	0.000000	0.000000	-0.000000	0.000000	-0.000000	2.319941	0.081269	0.171608	0.000000	0.000000	0.000000	-0.000000	0.000000	0.000000	2.203613	0.095534	0.178943	0.000000	0.000000	0.000000
0.217553	-0.000000	0.000000	-0.000000	1.125614	0.227969	0.392226	0.000000	0.000000	0.000000	-0.000000	0.000000	-0.000000	1.151421	0.246022	0.414536	0.000000	0.000000	0.000000	-0.000000	0.000000	-0.000000	1.169655	0.254588	0.413013	0.000000	0.000000	0.000000	-0.000000	0.000000	-0.000000	1.166777	0.253497	0.390576	0.000000	0.000000	0.000000	-0.000000	0.000000	-0.000000	1.214136	0.291243	0.445756	0.000000	0.000000	0.000000	-0.000000	0.000000	-0.000000	1.184198	0.267524	0.408631	0.000000	0.000000	0.000000	-0.000000	0.000000	-0.000000	1.242370	0.319265	0.391104	0.000000	0.000000	0.000000	-0.000000	0.000000	-0.000000	2.444332	0.063738	0.191067	0.000000	0.000000	0.000000	-0.000000	0.000000	-0.000000	2.405189	0.072036	0.165383	0.000000	0.000000	0.000000	-0.000000	0.000000	-0.000000	2.374759	0.075496	0.170016	0.000000	0.000000	0.000000	-0.000000	0.000000	-0.000000	2.374259	0.072005	0.191638	0.000000	0.000000	0.000000	-0.000000	0.000000	0.000000	2.298159	0.091905	0.131543	0.000000	0.000000	0.000000	-0.000000	0.000000	0.000000	2.345662	0.079057	0.171644	0.000000	0.000000	0.000000	-0.000000	0.000000	0.000000	2.229276	0.093303	0.178152	0.000000	0.000000	0.000000
0.219037	-0.000000	0.000000	-0.000000	1.146728	0.230674	0.392823	0.000000	0.000000	0.000000	-0.000000	0.000000	-0.000000	1.172738	0.248681	0.415044	0.000000	0.000000	0.000000	-0.000000	0.000000	-0.000000	1.191033	0.257213	0.413462	0.000000	0.000000	0.000000	-0.000000	0.000000	-0.000000	1.188080	0.256123	0.391034	0.000000	0.000000	0.000000	-0.000000	0.000000	-0.000000	1.235889	0.293788	0.446048	0.000000	0.000000	0.000000	-0.000000	0.000000	-0.000000	1.205662	0.270119	0.409028	0.000000	0.000000	0.000000	-0.000000	0.000000	-0.000000	1.264176	0.321746	0.391292	0.000000	0.000000	0.000000	-0.000000	0.000000	-0.000000	2.461789	0.061704	0.191544	0.000000	0.000000	0.000000	-0.000000	0.000000	-0.000000	2.422829	0.070171	0.165805	0.000000	0.000000	0.000000	-0.000000	0.000000	0.000000	2.392977	0.073887	0.170121	0.000000	0.000000	0.000000	-0.000000	0.000000	0.000000	2.392367	0.070385	0.191732	0.000000	0.000000	0.000000	-0.000000	0.000000	0.000000	2.316570	0.090308	0.131286	0.000000	0.000000	0.000000	-0.000000	0.000000	0.000000	2.363871	0.077444	0.171605	0.000000	0.000000	0.000000	-0.000000	0.000000	0.000000	2.247447	0.091676	0.177542	0.000000	0.000000	0.000000
0.219685	-0.000000	0.000000	-0.000000	1.156016	0.231824	0.393102	0.000000	0.000000	0.000000	-0.000000	0.000000	-0.000000	1.182111	0.249813	0.415280	0.000000	0.000000	0.000000	-0.000000	0.000000	-0.000000	1.200430	0.258331	0.413670	0.000000	0.000000	0.000000	-0.000000	0.000000	-0.000000	1.197443	0.257242	0.391247	0.000000	0.000000	0.000000	-0.000000	0.000000	-0.000000	1.245442	0.294875	0.446180	0.000000	0.000000	0.000000	-0.000000	0.000000	-0.000000	1.215092	0.271226	0.409211	0.000000	0.000000	0.000000	-0.000000	0.000000	-0.000000	1.273739	0.322807	0.391375	0.000000	0.000000	0.000000	-0.000000	0.000000	-0.000000	2.469298	0.060812	0.191731	0.000000	0.000000	0.000000	-0.000000	0.000000	-0.000000	2.430418	0.069356	0.165970	0.000000	0.000000	0.000000	-0.000000	0.000000	0.000000	2.400822	0.073181	0.170149	0.000000	0.000000	0.000000	-0.000000	0.000000	0.000000	2.400164	0.069672	0.191755	0.000000	0.000000	0.000000	-0.000000	0.000000	0.000000	2.324499	0.089611	0.131165	0.000000	0.000000	0.000000	-0.000000	0.000000	0.000000	2.371712	0.076737	0.171573	0.000000	0.000000	0.000000	-0.000000	0.000000	0.000000	2.255272	0.090961	0.177268	0.000000	0.000000	0.000000
0.221733	-0.000000	0.000000	-0.000000	1.185623	0.235337	0.394048	0.000000	0.000000	0.000000	-0.000000	0.000000	-0.000000	1.211974	0.253278	0.416077	0.000000	0.000000	0.000000	-0.000000	0.000000	-0.000000	1.230357	0.261756	0.414369	0.000000	0.000000	0.000000	-0.000000	0.000000	-0.000000	1.227256	0.260665	0.391961	0.000000	0.000000	0.000000	-0.000000	0.000000	-0.000000	1.275830	0.298216	0.446615	0.000000	0.000000	0.000000	-0.000000	0.000000	-0.000000	1.245107	0.274619	0.409823	0.000000	0.000000	0.000000	-0.000000	0.000000	-0.000000	1.304105	0.326069	0.391637	0.000000	0.000000	0.000000	-0.000000	0.000000	-0.000000	2.492567	0.057983	0.192234	0.000000	0.000000	0.000000	-0.000000	0.000000	-0.000000	2.453944	0.066777	0.166423	0.000000	0.000000	0.000000	-0.000000	0.000000	0.000000	2.425166	0.070937	0.170175	0.000000	0.000000	0.000000	-0.000000	0.000000	0.000000	2.424362	0.067399	0.191756	0.000000	0.000000	0.000000	-0.000000	0.000000	0.000000	2.349100	0.087407	0.130756	0.000000	0.000000	0.000000	-0.000000	0.000000	0.000000	2.396044	0.074486	0.171418	0.000000	0.000000	0.000000	-0.000000	0.000000	0.000000	2.279557	0.088680	0.176388	0.000000	0.000000	0.000000
0.223218	-0.000000	0.000000	-0.000000	1.207320	0.237768	0.394786	0.000000	0.000000	0.000000	-0.000000	0.000000	-0.000000	1.233842	0.255683	0.416697	0.000000	0.000000	0.000000	-0.000000	0.000000	-0.000000	1.252262	0.264137	0.414911	0.000000	0.000000	0.000000	-0.000000	0.000000	-0.000000	1.249074	0.263043	0.392516	0.000000	0.000000	0.000000	-0.000000	0.000000	-0.000000	1.298037	0.300549	0.446944	0.000000	0.000000	0.000000	-0.000000	0.000000	-0.000000	1.267061	0.276979	0.410294	0.000000	0.000000	0.000000	-0.000000	0.000000	-0.000000	1.326255	0.328348	0.391828	0.000000	0.000000	0.000000	-0.000000	0.000000	-0.000000	2.509003	0.055922	0.192528	0.000000	0.000000	0.000000	-0.000000	0.000000	-0.000000	2.470565	0.064901	0.166697	0.000000	0.000000	0.000000	-0.000000	0.000000	0.000000	2.442390	0.069297	0.170146	0.000000	0.000000	0.000000	-0.000000	0.000000	0.000000	2.441485	0.065730	0.191705	0.000000	0.000000	0.000000	-0.000000	0.000000	0.000000	2.366501	0.085802	0.130447	0.000000	0.000000	0.000000	-0.000000	0.000000	0.000000	2.413259	0.072838	0.171267	0.000000	0.000000	0.000000	-0.000000	0.000000	0.000000	2.296737	0.087002	0.175749	0.000000	0.000000	0.000000
0.223866	-0.000000	0.000000	-0.000000	1.216856	0.238801	0.395120	0.000000	0.000000	0.000000	-0.000000	0.000000	-0.000000	1.243449	0.256706	0.416976	0.000000	0.000000	0.000000	-0.000000	0.000000	-0.000000	1.261882	0.265151	0.415155	0.000000	0.000000	0.000000	-0.000000	0.000000	-0.000000	1.258655	0.264055	0.392766	0.000000	0.000000	0.000000	-0.000000	0.000000	-0.000000	1.307782	0.301545	0.447091	0.000000	0.000000	0.000000	-0.000000	0.000000	-0.000000	1.276699	0.277985	0.410506	0.000000	0.000000	0.000000	-0.000000	0.000000	-0.000000	1.335964	0.329321	0.391912	0.000000	0.000000	0.000000	-0.000000	0.000000	-0.000000	2.516068	0.055018	0.192641	0.000000	0.000000	0.000000	-0.000000	0.000000	-0.000000	2.477711	0.064080	0.166805	0.000000	0.000000	0.000000	-0.000000	0.000000	0.000000	2.449801	0.068576	0.170124	0.000000	0.000000	0.000000	-0.000000	0.000000	0.000000	2.448853	0.064995	0.191672	0.000000	0.000000	0.000000	-0.000000	0.000000	0.000000	2.373987	0.085098	0.130311	0.000000	0.000000	0.000000	-0.000000	0.000000	0.000000	2.420666	0.072113	0.171194	0.000000	0.000000	0.000000	-0.000000	0.000000	0.000000	2.304129	0.086261	0.175473	0.000000	0.000000	0.000000
0.225914	-0.000000	0.000000	-0.000000	1.247217	0.241948	0.396211	0.000000	0.000000	0.000000	-0.000000	0.000000	-0.000000	1.274020	0.259829	0.417888	0.000000	0.000000	0.000000	-0.000000	0.000000	-0.000000	1.292488	0.268249	0.415951	0.000000	0.000000	0.000000	-0.000000	0.000000	-0.000000	1.289137	0.267145	0.393582	0.000000	0.000000	0.000000	-0.000000	0.000000	-0.000000	1.338746	0.304599	0.447566	0.000000	0.000000	0.000000	-0.000000	0.000000	-0.000000	1.307347	0.281061	0.411197	0.000000	0.000000	0.000000	-0.000000	0.000000	-0.000000	1.366784	0.332309	0.392180	0.000000	0.000000	0.000000	-0.000000	0.000000	-0.000000	2.537942	0.052151	0.192945	0.000000	0.000000	0.000000	-0.000000	0.000000	-0.000000	2.499837	0.061475	0.167110	0.000000	0.000000	0.000000	-0.000000	0.000000	0.000000	2.472775	0.066277	0.170025	0.000000	0.000000	0.000000	-0.000000	0.000000	0.000000	2.471699	0.062648	0.191534	0.000000	0.000000	0.000000	-0.000000	0.000000	0.000000	2.397182	0.082856	0.129885	0.000000	0.000000	0.000000	-0.000000	0.000000	0.000000	2.443628	0.069799	0.170944	0.000000	0.000000	0.000000	-0.000000	0.000000	0.000000	2.327042	0.083890	0.174619	0.000000	0.000000	0.000000
